#N canvas 579 93 660 531 10;
#X declare -lib mrpeach;
#X obj 258 323 osc~;
#X obj 256 373 dac~;
#X obj 16 4 import mrpeach;
#X obj 17 35 mrpeach/udpreceive 57120;
#X obj 17 58 mrpeach/unpackOSC;
#X obj 29 88 print rawOSC;
#X obj 135 136 print;
#X obj 19 301 s frequence1;
#X obj 70 193 s frequence2;
#X obj 258 198 r frequence1;
#X obj 273 232 r frequence2;
#X obj 17 135 unpack f f;
#X obj 17 111 routeOSC /frequences;
#X obj 257 347 *~ 0.3;
#X obj 29 270 print frequence1;
#X obj 84 170 print frequence2;
#X obj 273 253 osc~;
#X obj 258 300 +~;
#X obj 273 276 *~ 300;
#X connect 0 0 13 0;
#X connect 3 0 4 0;
#X connect 4 0 5 0;
#X connect 4 0 12 0;
#X connect 9 0 17 0;
#X connect 10 0 16 0;
#X connect 11 0 7 0;
#X connect 11 0 14 0;
#X connect 11 1 8 0;
#X connect 11 1 15 0;
#X connect 12 0 11 0;
#X connect 12 1 6 0;
#X connect 13 0 1 0;
#X connect 16 0 18 0;
#X connect 17 0 0 0;
#X connect 18 0 17 1;
